<?xml version="1.0" encoding="utf-8"?>
<!-- Generator: Adobe Illustrator 17.1.0, SVG Export Plug-In . SVG Version: 6.00 Build 0)  -->
<!DOCTYPE svg PUBLIC "-//W3C//DTD SVG 1.1//EN" "http://www.w3.org/Graphics/SVG/1.1/DTD/svg11.dtd" [
	<!ENTITY st0 "fill:#FFFFFF;">
]>
<svg version="1.1" id="レイヤー_1" xmlns="http://www.w3.org/2000/svg" xmlns:xlink="http://www.w3.org/1999/xlink" x="0px"
	 y="0px" viewBox="0 0 166.011 188.898" style="enable-background:new 0 0 166.011 188.898;" xml:space="preserve">
<g>
	<path style="&st0;" d="M123.118,41.232c0-22.046-17.872-39.917-39.917-39.917c-22.046,0-39.917,17.872-39.917,39.917
		s17.872,39.917,39.917,39.917c2.125,0,4.209-0.17,6.244-0.489v10.936h8.086l-14.048,15.438L69.034,91.596h8.525v-7.404
		c-1.265-0.223-2.508-0.509-3.727-0.854v4.532h-13.39l23.079,24.66l22.439-24.66H93.171v-7.976
		C110.392,75.465,123.118,59.835,123.118,41.232z M86.948,57.235v10.482h-8.115V57.235H66.92l0.045-5.275h11.868v-5.207H67.01
		l0.045-5.274h9.806L63.658,19.84h9.467L83.44,39.318L93.683,19.84h9.061l-13.237,21.64h9.467l-0.045,5.274H86.948v5.207h11.936
		l-0.045,5.275H86.948z"/>
</g>
<path style="&st0;" d="M84.471,125.826c0.575-1.16,0.907-2.46,0.907-3.84c0-1.38-0.332-2.68-0.907-3.84
	c1.183-1.611,3.086-2.662,5.238-2.662c3.591,0,6.502,2.911,6.502,6.502s-2.911,6.502-6.502,6.502
	C87.556,128.487,85.654,127.437,84.471,125.826z M76.693,128.487c3.591,0,6.502-2.911,6.502-6.502s-2.911-6.502-6.502-6.502
	c-3.591,0-6.502,2.911-6.502,6.502S73.102,128.487,76.693,128.487z M119.303,146.671c-0.092-0.243-1.974-5.245-3.016-7.899
	c-2.189-5.572-6.753-7.415-12.813-7.415H62.927c-6.06,0-10.624,1.843-12.813,7.415c-1.042,2.654-2.925,7.657-3.016,7.899
	c-0.606,1.609,0.207,3.406,1.817,4.012c0.362,0.136,0.732,0.201,1.097,0.2c1.259,0,2.445-0.769,2.915-2.017
	c0.022-0.059,1.827-5.011,2.882-7.612c1.022-2.519,2.628-3.669,6.352-3.669h42.08c3.723,0,5.33,1.15,6.352,3.669
	c1.056,2.601,2.861,7.553,2.883,7.612c0.47,1.248,1.656,2.017,2.915,2.017c0.365,0,0.736-0.064,1.097-0.2
	C119.096,150.077,119.909,148.281,119.303,146.671z M116.729,170.485c1.998,7.896-2.795,17.099-14.46,17.099
	c-8.732,0-29.404,0-38.137,0c-11.664,0-16.458-9.203-14.46-17.099c1.558-6.158,5.993-22.07,7.226-25.671
	c0.927-2.705,2.287-4.355,5.711-4.355c3.345,0,37.835,0,41.181,0c3.425,0,4.785,1.65,5.711,4.355
	C110.736,148.414,115.171,164.327,116.729,170.485z M81.524,163.572c0.014-6.048-3.495-10.977-7.823-10.988
	c-4.329-0.01-7.862,4.902-7.876,10.951c-0.014,6.048,3.495,10.978,7.824,10.988C77.977,174.533,81.51,169.621,81.524,163.572z
	 M100.577,158.745c0.015-6.348-3.645-11.52-8.16-11.531c-4.514-0.011-8.199,5.145-8.214,11.492
	c-0.015,6.348,3.645,11.52,8.16,11.531C96.877,170.247,100.562,165.092,100.577,158.745z M74.282,155.847
	c-1.732-0.004-3.141,1.927-3.146,4.315c-0.006,2.387,1.394,4.326,3.126,4.33c1.732,0.004,3.141-1.928,3.146-4.315
	C77.413,157.788,76.013,155.851,74.282,155.847z M92.693,150.063c-1.806-0.004-3.274,2-3.28,4.477
	c-0.006,2.476,1.453,4.487,3.259,4.491s3.275-2,3.281-4.476C95.958,152.078,94.499,150.067,92.693,150.063z"/>
</svg>
