<?xml version="1.0" encoding="utf-8"?>
<!-- Generator: Adobe Illustrator 17.1.0, SVG Export Plug-In . SVG Version: 6.00 Build 0)  -->
<!DOCTYPE svg PUBLIC "-//W3C//DTD SVG 1.1//EN" "http://www.w3.org/Graphics/SVG/1.1/DTD/svg11.dtd" [
	<!ENTITY st0 "fill:#FFFFFF;">
]>
<svg version="1.1" id="レイヤー_1" xmlns="http://www.w3.org/2000/svg" xmlns:xlink="http://www.w3.org/1999/xlink" x="0px"
	 y="0px" viewBox="0 0 166.011 188.898" style="enable-background:new 0 0 166.011 188.898;" xml:space="preserve">
<g>
	<path style="&st0;" d="M159.893,142.973l-23.449-15.296l-10.906,2.289l21.819,16.355h-26.235c-0.729,0-1.391,0.37-1.719,0.953
		l-5.866,16.045H51.305l-5.866-16.045c-0.325-0.583-0.99-0.953-1.719-0.953H18.275l21.74-16.676l2.761,13.154l97.39-20.443
		l-12.113-57.702l-12.714,2.414l-2.659-12.754L27.937,72.104l10.238,48.772L5.741,142.973c-3.401,2.032-5.434,6.713-4.523,10.403
		l4.03,22.065c0.914,3.69,4.958,6.71,8.984,6.71h137.171c4.027,0,8.07-3.02,8.984-6.71l4.027-22.065
		C165.33,149.686,163.294,145.004,159.893,142.973z M108.241,63.556l0.901,0.822l-7.87,8.597l21.886,38.116l6.047-1.269
		c0,0,0.416,1.982,0.676,3.22l-82.614,17.33L108.241,63.556z M66.012,46.402H43.759L82.804,3.494l40.158,42.908H99.663v7.809
		l-6.484,1.361V39.917h14.833L82.871,13.055L58.427,39.917h14.069v19.996l-6.484,1.361V46.402z M83.391,96.449
		c-3.981,0.836-6.27,6.042-5.102,11.604c1.168,5.563,5.356,9.409,9.338,8.573c3.981-0.836,6.269-6.041,5.102-11.604
		C91.561,99.46,87.372,95.614,83.391,96.449z M86.231,107.285c-1.593,0.334-3.258-1.175-3.719-3.37
		c-0.461-2.196,0.457-4.246,2.05-4.581c1.593-0.334,3.258,1.173,3.719,3.37C88.742,104.9,87.824,106.951,86.231,107.285z
		 M99.549,87.857c-4.152,0.872-6.533,6.33-5.307,12.168c1.226,5.838,5.6,9.879,9.752,9.007c4.152-0.872,6.533-6.33,5.307-12.168
		C108.075,91.026,103.701,86.986,99.549,87.857z M102.09,98.671c-1.661,0.349-3.395-1.215-3.873-3.492
		c-0.478-2.278,0.481-4.407,2.142-4.756c1.661-0.349,3.395,1.215,3.873,3.493C104.71,96.194,103.75,98.323,102.09,98.671z"/>
</g>
</svg>
