<?xml version="1.0" encoding="utf-8"?>
<!-- Generator: Adobe Illustrator 17.1.0, SVG Export Plug-In . SVG Version: 6.00 Build 0)  -->
<!DOCTYPE svg PUBLIC "-//W3C//DTD SVG 1.1//EN" "http://www.w3.org/Graphics/SVG/1.1/DTD/svg11.dtd" [
	<!ENTITY st0 "fill:#FFFFFF;">
]>
<svg version="1.1" id="レイヤー_1" xmlns="http://www.w3.org/2000/svg" xmlns:xlink="http://www.w3.org/1999/xlink" x="0px"
	 y="0px" viewBox="3.667 83.557 587.333 676.336" style="enable-background:new 3.667 83.557 587.333 676.336;"
	 xml:space="preserve">
<path style="&st0;" d="M231.47,93.599c-2.56-5.042-0.029-9.169,5.626-9.169h113.253c5.655,0,8.165,4.116,5.579,9.144
	c0,0-14.515,28.202-62.178,28.202C245.781,121.779,231.47,93.599,231.47,93.599z M362.433,264.203
	c-0.039,16.857-9.825,30.547-21.812,30.519c-11.987-0.029-21.708-13.766-21.669-30.619c0.039-16.857,9.825-30.547,21.812-30.519
	C352.752,233.609,362.473,247.346,362.433,264.203z M350.152,253.076c0.014-6.576-3.858-11.916-8.656-11.93
	c-4.794-0.011-8.696,5.311-8.71,11.887c-0.014,6.576,3.858,11.916,8.656,11.926C346.236,264.974,350.138,259.653,350.152,253.076z
	 M504.334,613.509c-9.76-0.021-17.674-11.206-17.642-24.932c0.032-13.723,8-24.871,17.76-24.846
	c9.76,0.021,17.674,11.206,17.642,24.932C522.058,602.386,514.094,613.53,504.334,613.509z M505.001,589.28
	c3.905,0.011,7.082-4.324,7.093-9.678c0.014-5.357-3.141-9.703-7.046-9.71c-3.905-0.011-7.078,4.324-7.093,9.678
	C497.94,584.923,501.096,589.269,505.001,589.28z M311.838,277.022c-0.039,16.061-9.42,29.106-20.912,29.081
	c-11.496-0.029-20.815-13.117-20.776-29.178s9.42-29.106,20.916-29.081C302.554,247.87,311.874,260.962,311.838,277.022z
	 M300.905,268.004c0.014-6.34-3.704-11.485-8.301-11.496c-4.601-0.011-8.341,5.117-8.355,11.457
	c-0.014,6.34,3.701,11.489,8.301,11.5C297.151,279.475,300.891,274.344,300.905,268.004z M463.872,622.775
	c-9.359-0.021-16.946-10.678-16.918-23.756c0.032-13.077,7.67-23.698,17.029-23.677c9.359,0.022,16.946,10.678,16.914,23.756
	C480.868,612.175,473.231,622.796,463.872,622.775z M465.195,601.084c3.744,0.007,6.791-4.167,6.802-9.33
	c0.011-5.164-3.016-9.352-6.759-9.359c-3.744-0.011-6.791,4.167-6.802,9.327C458.425,596.885,461.451,601.077,465.195,601.084z
	 M138.408,509.041c-0.022,9.291-5.415,16.835-12.02,16.817c-6.605-0.014-11.962-7.584-11.941-16.875
	c0.022-9.291,5.415-16.835,12.02-16.817C133.076,492.18,138.429,499.75,138.408,509.041z M131.641,502.909
	c0.007-3.625-2.126-6.569-4.769-6.573c-2.643-0.007-4.791,2.926-4.801,6.551c-0.007,3.625,2.126,6.566,4.769,6.573
	C129.483,509.467,131.631,506.534,131.641,502.909z M131,652.867c-5.333,0-78.31,0-78.31,0c-13.246,0-24.086-10.84-24.086-24.086
	V416.818c0-13.246,10.84-24.086,24.086-24.086h91.527c13.246,0,24.086,10.84,24.086,24.086c0,0,0,122.739,0,128.072
	c0,5.333-0.969,7.983-7.236,7.983c-10.733,0-21.364,10.32-21.364,23.006c0,0,0,61.678,0,67.678S136.333,652.867,131,652.867z
	 M44.668,423.236c0,6.117,4.959,11.076,11.076,11.076h18.46c6.117,0,11.076-4.959,11.076-11.076c0-6.117-4.959-11.076-11.076-11.076
	h-18.46C49.624,412.16,44.668,417.119,44.668,423.236z M164.527,540.341c0.004-1.972,0.011-5.124,0.011-5.124l-9.621-0.021
	l-21.009-65.143l14.77-10.549l-1.108-1.542l-114.494,82.05L164.527,540.341z M589.199,483.657v249.395
	c0,3.998-3.27,7.268-7.268,7.268H343.486c-3.998,0-7.268-3.106-7.268-7.268c0-8.162,4.855-11.838,7.104-13.842
	c16.975-15.125,27.026-37.863,27.026-64.479c0-7.261-0.904-14.017-2.478-20.31l192.808,0.48l0,0c0.007-2.912,0.018-7.57,0.018-7.57
	l-14.214-0.032l-31.035-96.239l21.82-15.584l-1.635-2.281L367.676,633.557c-4.166-15.878-13.336-28.077-24.096-37.704
	c-5.08-4.545-7.362-7.02-7.362-17.907s0-94.289,0-94.289c0-3.998,3.27-7.268,7.268-7.268c0,0,19.348,0,26.014,0
	s8.551-6.848,8.583-10.499c0.452-52.174,6.397-132.621,84.627-132.621c78.647,0,84.236,81.306,84.634,133.452
	c0.026,3.353,2.825,9.667,8.824,9.667c5.999,0,25.766,0,25.766,0C585.928,476.388,589.199,479.659,589.199,483.657z
	 M526.735,466.052c-1.179-69.63-13.496-112.251-64.025-112.251c-50.491,0-63.21,41.839-64.022,112.092
	c-0.092,7.998,3.445,10.495,9.312,10.495c26.835,0,102.282,0,109.667,0C526.667,476.388,526.792,469.434,526.735,466.052z
	 M110.525,516.105c-0.022,8.85-5.192,16.039-11.525,16.025c-6.336-0.014-11.471-7.229-11.449-16.079s5.192-16.039,11.525-16.025
	C105.411,500.04,110.546,507.255,110.525,516.105z M104.501,511.135c0.007-3.496-2.04-6.329-4.575-6.336
	c-2.535-0.007-4.597,2.818-4.604,6.315c-0.007,3.493,2.04,6.332,4.575,6.336C102.432,517.456,104.493,514.627,104.501,511.135z
	 M49.305,276.545L5.364,174.013c-2.227-5.199,0.28-11.084,5.572-13.077l191.409-72.128c5.293-1.994,11.36,0.663,13.483,5.906
	c0,0,16.839,41.577,77.923,41.577c61.08,0,77.919-41.577,77.919-41.577c2.123-5.242,8.19-7.899,13.483-5.906l191.409,72.128
	c5.293,1.994,7.799,7.882,5.572,13.077l-43.94,102.532c-2.227,5.199-8.642,8.857-14.25,8.129l-51.474-6.677
	c-5.608-0.728-10.198,3.306-10.198,8.961c0,0,0,16.912,0,26.537c0,9.626-5.91,9.027-8.761,9.248
	c-36.325,2.815-61.453,22.697-74.748,59.227c-8.412,23.108-9.921,54.314-11.36,76.415c-0.351,5.395-0.4,7.116-6.196,7.116
	c-5.795,0-17.721,0-17.721,0c-10.008,0-18.155,8.143-18.155,18.155c0,0,0,83.898,0,91.073s-4.628,8.153-6.987,7.382
	c-0.94-0.307-1.92-0.491-2.832-0.865c-2.446-1.002-3.708-3.332-4.489-8.294c-1.772-11.248-10.334-20.076-21.192-20.076
	c0,0-94.498,0-101.165,0s-9.478-4.322-9.478-10.654s0-125.405,0-125.405c0-19.284-15.688-34.969-34.969-34.969c0,0-5.22,0-7.22,0
	c-8.667,0-11.77-4.626-11.77-11.959s0-82.932,0-82.932c0-5.655-4.59-9.689-10.198-8.961l-51.474,6.677
	C57.946,285.402,51.535,281.745,49.305,276.545z M171.3,320.4l238.519,0.595l0,0c0.007-3.575,0.022-9.298,0.022-9.298l-17.459-0.043
	l-38.117-118.202l26.8-19.141l-2.008-2.801L171.3,320.4z M416.055,465.502c4.286,0,27.137,0,39.024,0
	c5.162,0,7.197-1.965,7.197-8.221c0-22.019,0-80.964,0-85.423c0-5.493-5.795-6.959-8.478-6.59
	c-29.616,4.073-42.019,30.242-44.029,92.86C409.692,460.532,410.21,465.502,416.055,465.502z M263.025,664.847
	c-0.021,9.47-5.519,17.158-12.253,17.144s-12.195-7.731-12.174-17.201c0.022-9.47,5.519-17.158,12.253-17.144
	C257.589,647.664,263.046,655.377,263.025,664.847z M256.126,658.597c0.007-3.693-2.169-6.695-4.862-6.702
	c-2.693-0.007-4.884,2.983-4.895,6.677c-0.007,3.693,2.169,6.695,4.862,6.698C253.927,665.281,256.118,662.294,256.126,658.597z
	 M234.604,672.05c-0.021,9.022-5.293,16.351-11.747,16.333c-6.458-0.014-11.693-7.369-11.672-16.391s5.293-16.351,11.747-16.333
	C229.39,655.674,234.625,663.025,234.604,672.05z M228.461,666.984c0.007-3.561-2.08-6.451-4.662-6.458
	c-2.585-0.007-4.687,2.872-4.694,6.436c-0.007,3.561,2.08,6.454,4.662,6.458C226.353,673.424,228.454,670.544,228.461,666.984z
	 M359.461,654.728c0,36.739-20.549,63.784-52.239,71.294c-2.249,0.533-6.912,3.618-6.912,8.618s0,11.586,0,11.586
	c0,6.67-4.715,12.124-10.481,12.124H161.063c-5.762,0-10.481-5.454-10.481-12.124V575.88c0-6.67,4.715-12.124,10.481-12.124h128.766
	c5.762,0,10.481,5.454,10.481,12.124c0,0,0,2.26,0,5.01c0,7.75,5.627,9.276,8.416,9.879
	C335.226,596.495,359.461,619.127,359.461,654.728z M289.656,691.528l-9.807-0.021l-21.414-66.398l15.053-10.754l-1.13-1.574
	l-116.699,83.635l133.987,0.333l0,0C289.649,694.741,289.656,691.528,289.656,691.528z M333.586,654.728
	c0-18.497-9.795-28.546-23.281-33.008c-3.155-1.044-9.992-3.829-9.992,5.171c0,6.847,0,44.083,0,61.499
	c0,9.5,5.573,7.516,8.154,6.422C323.488,688.45,333.586,674.204,333.586,654.728z"/>
</svg>
