<?xml version="1.0" encoding="utf-8"?>
<!-- Generator: Adobe Illustrator 17.1.0, SVG Export Plug-In . SVG Version: 6.00 Build 0)  -->
<!DOCTYPE svg PUBLIC "-//W3C//DTD SVG 1.1//EN" "http://www.w3.org/Graphics/SVG/1.1/DTD/svg11.dtd" [
	<!ENTITY st0 "fill:#FFFFFF;">
]>
<svg version="1.1" id="レイヤー_1" xmlns="http://www.w3.org/2000/svg" xmlns:xlink="http://www.w3.org/1999/xlink" x="0px"
	 y="0px" viewBox="0 171.89 595.28 498.11" style="enable-background:new 0 171.89 595.28 498.11;" xml:space="preserve">
<g>
	<path d="M367.336,635.116c0,7.393-6.775,11.001-13.299,11.001c-6.525,0-13.426-3.609-13.426-11.001v-59.625
		c-7.027,0-14.429,0-21.456,0v60.338c0,19.323,16.94,30.489,34.883,30.489c18.067,0,35.007-11.167,35.007-30.489v-60.338
		c-7.027,0-14.555,0-21.707,0v59.625H367.336z"/>
	<path d="M83.289,610.392c-8.011-0.89-14.597-2.159-14.115-8.901c0.81-11.325,24.671-11.7,24.671,0.128c7.758,0,13.608,0,21.62,0
		c0.51-38.407-68.672-38.533-67.91-0.128c0.254,19.329,13.439,25.528,32.302,27.468c8.87,0.912,16.252,1.971,16.279,8.203
		c0.045,10.658-27.85,10.238-27.85-1.08c-7.758,0-14.371,0-22,0c-0.51,39.169,71.979,38.833,71.979,1.08
		C118.261,615.333,100.965,612.299,83.289,610.392z"/>
	<path d="M185.633,635.116c0,7.393-6.774,11.001-13.299,11.001s-13.426-3.609-13.426-11.001v-59.625c-7.027,0-14.429,0-21.456,0
		v60.338c0,19.323,16.94,30.489,34.883,30.489c18.067,0,35.007-11.167,35.007-30.489v-60.338c-7.027,0-14.555,0-21.707,0
		L185.633,635.116L185.633,635.116z"/>
	<path d="M297.259,575.491h-66.501c0,7.653,0,12.42,0,20.075h32.622l-35.886,67.756h70.14c0-7.654,0-12.422,0-20.076h-36.388
		L297.259,575.491z"/>
	<path d="M451.042,575.491c-12.799,0-25.847,0-38.521,0c0,29.361,0,58.595,0,87.831c7.277,0,14.931,0,22.46,0v-25.848h11.67
		l15.056,25.848h26.628l-18.723-31.118C491.821,617.147,485.546,575.616,451.042,575.491z M451.042,617.273h-16.061
		c0-7.026,0-14.555,0-21.707c5.27,0,10.791-0.127,16.061,0C463.84,595.692,463.214,617.273,451.042,617.273z"/>
	<path d="M551.385,595.064c0-7.528,0-19.573,0-19.573h-43.699c0,0,0,12.044,0,19.573h10.728v48.558h-10.728v19.701
		c0,0,28.766,0,43.699,0c0-7.654,0-12.297,0-19.701h-10.762v-48.558H551.385L551.385,595.064z"/>
</g>
<g>
	<g>
		<path d="M551.385,523.177l-95.729-294.463l66.702-47.878l-5.026-6.97L0.257,546.276l594.654,0.079l0,0c0-8.916,0-23.179,0-23.179
			L551.385,523.177L551.385,523.177z"/>
		<path style="&st0;" d="M298.403,509.923c-28.657,0-51.969-32.58-51.969-72.621s23.314-72.621,51.969-72.621
			c28.654,0,51.967,32.58,51.967,72.621C350.368,477.343,327.057,509.923,298.403,509.923z"/>
		<path style="&st0;" d="M422.231,481.255c-29.888,0-54.201-34.187-54.201-76.211s24.315-76.211,54.201-76.211
			c29.887,0,54.199,34.187,54.199,76.211S452.118,481.255,422.231,481.255z"/>
		<path d="M309.581,381.513c-11.467,0-20.763,12.804-20.763,28.613c0,15.805,9.296,28.617,20.763,28.617
			c11.464,0,20.763-12.813,20.763-28.617C330.345,394.317,321.046,381.513,309.581,381.513z"/>
		<ellipse cx="431.381" cy="372.623" rx="21.646" ry="29.686"/>
	</g>
</g>
</svg>
