<?xml version="1.0" encoding="utf-8"?>
<!-- Generator: Adobe Illustrator 17.1.0, SVG Export Plug-In . SVG Version: 6.00 Build 0)  -->
<!DOCTYPE svg PUBLIC "-//W3C//DTD SVG 1.1//EN" "http://www.w3.org/Graphics/SVG/1.1/DTD/svg11.dtd">
<svg version="1.1" id="レイヤー_1" xmlns="http://www.w3.org/2000/svg" xmlns:xlink="http://www.w3.org/1999/xlink" x="0px"
	 y="0px" viewBox="0 396.39 595.28 49" style="enable-background:new 0 396.39 595.28 49;" xml:space="preserve">
<g>
	<path d="M23.304,397.463c0.855,1.497,2.637,4.632,5.701,7.127c0.214-0.713,1.212-3.92,1.639-7.412l7.269,1.497
		c0.214,0.071,0.641,0.214,0.641,0.641c0,0.57-0.713,0.784-1.283,0.926c-0.499,2.209-0.784,3.207-1.14,4.418h10.761l2.993,3.064
		c-2.067,6.77-3.492,10.333-4.989,13.612c-2.138-1.14-5.63-1.782-6.414-1.782c0,0.285-0.071,0.713-0.143,1.639
		c1.568,4.989,4.276,11.189,12.186,17.745c-2.28,0.855-5.345,4.846-5.701,5.416c-4.917-4.561-7.412-9.692-8.908-12.757
		c-2.566,6.485-5.986,9.977-9.336,13.113c-0.784-0.926-1.639-1.853-3.991-3.349h-3.706v-2.637H13.54v4.704H6.343v-16.035
		c-0.428,0.356-0.784,0.57-1.425,1.069c-1.425-2.851-2.138-3.991-4.205-5.701c3.421-2.423,10.12-7.412,13.042-15.607l6.699,1.924
		c0.713,0.214,0.926,0.428,0.926,0.784c0,0.499-0.57,0.57-1.283,0.713c1.14,1.782,3.563,5.416,9.835,8.979
		c-1.14,0.998-2.637,2.423-3.92,4.418v11.901c6.271-7.412,6.271-17.531,6.271-20.596c-0.57,1.069-0.926,1.639-1.568,2.637
		c-1.425-1.212-2.637-2.138-6.77-3.136c2.067-2.637,3.563-5.701,4.704-9.193c-2.922,1.853-3.777,2.494-4.989,4.205
		c-2.851-2.993-4.205-5.06-6.271-8.837L23.304,397.463z M16.177,400.314c0.285,0.071,0.713,0.285,0.713,0.784
		c0,0.784-0.926,0.784-1.425,0.784c-2.352,3.991-4.347,6.77-8.124,10.191c-1.568-1.924-3.136-3.349-5.416-4.347
		c4.205-3.421,6.343-6.628,7.91-10.262L16.177,400.314z M21.308,422.477c-0.713-0.641-2.851-2.637-4.846-5.915
		c-1.71,2.494-2.779,3.92-4.704,5.915H21.308z M13.54,428.749v3.991h5.487v-3.991H13.54z M39.196,413.854
		c0.641,0.071,1.069,0.214,1.069,0.641c0,0.713-0.713,0.926-1.497,1.14c-0.071,1.283-0.071,2.209-0.143,3.706
		c1.14-1.782,2.423-4.49,3.207-7.768h-7.91c-0.214,0.499-0.499,1.283-0.641,1.568L39.196,413.854z"/>
	<path d="M68.985,400.385c0.713,0.071,1.14,0.143,1.14,0.713c0,0.428-0.356,0.57-0.926,0.855c-1.14,5.772-1.568,13.469-1.568,19.455
		c0,11.117,1.069,13.184,4.846,13.184c8.338,0,15.75-11.331,17.104-14.039c1.212,1.639,3.349,4.276,5.701,6.414
		c-5.559,9.051-13.897,15.821-23.803,15.821c-10.832,0-11.759-9.193-11.759-21.451c0-2.851,0.499-15.18,0.499-17.674
		c0-1.425,0-3.064-0.071-4.49L68.985,400.385z"/>
	<path d="M113.241,403.236c0.428,0.143,0.998,0.285,0.998,0.713c0,0.641-0.57,0.713-0.998,0.784
		c-0.998,2.993-2.708,8.124-2.708,14.752c0,5.986,1.853,10.12,3.278,10.12c1.568,0,3.421-4.276,4.775-7.412
		c1.782,2.494,3.635,4.133,5.131,5.202c-3.92,9.478-8.338,12.828-10.761,12.828c-2.708,0-9.977-5.844-9.977-20.952
		c0-6.271,1.069-11.973,2.423-18.315L113.241,403.236z M136.83,403.592c5.416,7.269,9.051,15.536,9.906,24.587
		c-2.851,1.14-6.343,2.779-7.982,3.635c-0.57-10.405-3.635-17.531-8.196-24.23L136.83,403.592z"/>
	<path d="M177.736,400.599c0.57,0.214,0.855,0.356,0.855,0.784c0,0.713-0.855,0.855-1.425,0.855c-0.57,0.855-1.14,1.782-2.851,5.131
		c2.566,0.214,5.06,0.356,6.129,0.356c0.998,0,1.71-0.071,2.423-0.071c-0.998,2.067-1.924,6.271-2.138,7.697
		c-1.497,0.071-4.917,0.071-9.264-0.428c-0.57,1.354-1.283,3.064-1.782,4.276c1.212,0.214,4.846,0.713,10.832,0.713
		c-0.926,2.637-1.71,5.701-2.138,7.269c-2.993-0.214-6.343-0.499-10.975-1.14c-0.143,0.57-0.57,2.138-0.57,3.991
		c0,5.986,5.559,5.986,7.91,5.986c2.138,0,9.478,0,9.478-7.127c0-3.136-2.28-7.269-2.494-7.625c3.207-0.641,5.06-1.354,7.412-2.637
		c1.14,2.138,3.349,6.77,3.349,11.117c0,10.761-11.331,13.255-17.745,13.255c-9.835,0-15.251-5.06-15.251-12.258
		c0-2.708,0.428-4.775,0.713-5.915c-2.28-0.428-4.205-0.998-6.343-1.782l1.639-7.269c2.779,1.069,3.136,1.14,6.628,2.138
		c0.214-0.641,0.57-1.71,1.497-4.347c-2.708-0.641-4.632-1.354-7.269-2.423l1.497-7.554c4.062,1.568,6.129,2.067,8.623,2.708
		c0.499-1.354,2.851-7.269,3.349-8.481L177.736,400.599z"/>
	<path d="M222.776,434.877c10.619-1.924,13.754-10.191,13.754-15.251c0-3.991-2.138-11.26-11.331-11.973
		c-1.497,17.888-8.908,31.214-14.039,31.214c-3.848,0-10.904-6.414-10.904-15.465c0-10.547,9.621-22.805,23.945-22.805
		c10.69,0,20.026,7.269,20.026,18.957c0,2.28-0.214,8.481-5.773,15.108c-2.993,3.492-6.485,5.274-10.619,7.127
		C226.268,438.94,225.199,437.443,222.776,434.877z M207.454,422.762c0,3.777,2.138,6.628,3.136,6.628
		c1.14,0,2.138-2.209,2.637-3.492c2.138-4.846,3.706-10.476,3.777-16.819C211.302,411.217,207.454,418.415,207.454,422.762z"/>
	<path d="M262.827,402.238c0.356,0.143,0.641,0.356,0.641,0.713c0,0.57-0.926,0.713-1.354,0.713
		c-2.922,10.048-2.922,17.317-2.922,18.814c0,2.423,0.214,3.563,0.356,4.917c0.641-0.926,1.639-2.494,2.28-3.492
		c0.998,1.853,2.138,3.349,3.492,4.846c-0.998,1.425-4.133,6.129-4.062,11.973l-6.556,1.212c-0.713-2.352-2.637-9.265-2.637-19.741
		c0-4.989,0.57-13.826,2.922-22.377L262.827,402.238z M286.059,401.169c0.214,0.071,0.641,0.071,0.641,0.57
		c0,0.57-0.713,0.713-1.14,0.784c-0.143,1.069-0.356,2.423-0.499,5.844c3.848-0.713,5.487-1.211,7.269-1.782v7.34
		c-1.14,0.285-3.349,0.855-7.412,1.568c0,4.846,0.499,9.621,0.784,11.26c3.777,1.283,7.483,3.278,9.264,5.06
		c-0.784,1.425-2.281,4.632-3.349,6.913c-1.568-1.497-3.207-2.851-5.202-3.706c-0.214,6.271-6.485,6.984-9.55,6.984
		c-7.34,0-10.975-3.991-10.975-8.552c0-5.844,5.773-8.053,12.115-7.91c-0.356-5.559-0.428-6.2-0.57-9.051
		c-2.779,0.214-4.775,0.214-5.63,0.214c-1.568,0-2.566-0.071-3.635-0.143v-7.697c1.782,0.214,4.276,0.57,9.193,0.356
		c0-2.067,0-6.343,0.071-9.55L286.059,401.169z M275.94,431.528c-1.069,0-3.421,0.356-3.421,1.853c0,1.283,1.639,1.782,3.207,1.782
		c0.356,0,3.349,0,3.349-2.423c0-0.214,0-0.428-0.071-0.641C278.291,431.884,277.436,431.528,275.94,431.528z"/>
	<path d="M309.292,443.002c-2.209-2.637-5.416-5.701-10.191-8.623l4.846-5.416c5.202,3.136,9.336,6.841,11.046,8.481
		L309.292,443.002z"/>
	<path d="M359.605,399.672c0.356,0.071,0.641,0.356,0.641,0.784c0,0.57-0.855,0.641-1.497,0.641
		c-0.071,0.285-1.069,2.637-1.639,3.92h17.531v6.77h-12.614v4.418h11.046v6.556h-11.046v4.347h12.115v6.913H362.1v9.977h-7.768
		v-32.212h-0.641c-2.28,3.92-3.635,5.915-6.129,8.837c-2.281-2.067-5.202-3.349-5.986-3.635v27.01h-7.412v-23.09
		c-0.428,0.428-0.57,0.713-1.14,1.212c-1.354-1.639-3.848-3.848-6.129-4.775c3.421-2.993,9.55-11.26,12.044-19.812l7.768,2.138
		c0.428,0.071,0.713,0.356,0.713,0.57c0,0.784-1.14,0.713-1.425,0.713c-1.853,4.347-2.494,5.63-3.991,8.409
		c0.641,0.356,1.069,0.641,1.069,0.926c0,0.57-1.14,0.784-1.425,0.784v4.704c6.271-6.841,8.979-14.182,10.12-18.386L359.605,399.672
		z"/>
	<path d="M402.436,411.217c3.777-3.635,7.91-4.989,10.048-4.989c1.425,0,6.2,0.998,6.2,7.625c0,1.639-0.071,1.924-1.212,10.048
		c-0.214,1.639-0.356,3.92-0.356,5.559c0,0.641,0,2.28,1.283,2.28c0.57,0,2.637-0.356,6.129-4.205
		c0.713,2.922,0.855,3.349,2.637,7.554c-4.418,4.276-8.196,5.202-10.405,5.202c-2.708,0-7.412-1.782-7.412-8.837
		c0-2.423,1.354-13.897,1.354-15.322c0-0.998-0.57-1.639-1.497-1.639c-2.993,0-7.198,4.989-10.333,8.623
		c0.071,10.12,0.143,11.26,0.926,19.242l-8.552,0.356c0.356-2.423,0.428-5.915,0.428-8.409v-1.853
		c-0.713,0.998-3.492,5.416-4.133,6.129l-5.986-5.986c6.984-7.697,9.407-11.189,10.262-12.543c0-0.499,0.071-1.211,0.071-1.853
		c-1.354,0.499-4.703,1.425-7.768,1.782l-1.639-8.267c3.492,0,6.2-0.57,9.621-1.497c0.071-3.349,0.143-9.835,0.071-11.545
		l7.127,0.57c0.57,0.071,1.354,0.143,1.354,0.855c0,0.57-0.641,0.641-0.998,0.713c-0.356,3.848-0.499,5.844-0.57,7.269
		L402.436,411.217z"/>
	<path d="M444.34,403.307c0.784,0.214,1.14,0.356,1.14,0.855c0,0.356-0.214,0.57-1.14,0.713c-2.708,6.271-3.349,15.18-3.349,17.888
		c0,2.138,0.214,2.851,0.428,3.848c0.499-0.57,1.924-2.138,2.28-2.708c0.285,0.57,1.354,2.708,2.851,4.418
		c-1.568,2.566-3.848,7.412-4.418,11.616l-6.129,1.782c-1.639-5.844-2.28-12.757-2.28-18.885c0-1.14,0.071-7.127,0.998-12.115
		c0.214-0.998,1.782-9.621,1.924-10.191L444.34,403.307z M472.703,416.063c-3.278,0.926-6.485,1.354-7.127,1.497
		c0.071,4.062,0.071,4.775,0.57,8.979c3.136,0.926,7.127,2.851,9.835,4.775c-1.425,2.922-2.708,6.343-3.064,7.269
		c-1.71-1.639-3.635-2.851-6.129-4.205c0,2.423-0.998,7.554-8.481,7.554c-5.131,0-11.117-2.779-11.117-8.196
		c0-0.998,0-8.196,11.117-8.196c-0.143-2.138-0.356-5.844-0.356-7.34c-1.212,0.071-2.993,0.071-4.49,0.071
		c-2.352,0-3.278-0.071-4.276-0.214v-7.055c2.779,0.57,5.63,0.57,8.623,0.499c0.071-5.559,0.071-6.485,0-10.761l8.196,1.354
		c0.57,0.071,0.998,0.214,0.998,0.641c0,0.499-0.57,0.641-0.926,0.713c-0.356,3.207-0.428,6.414-0.428,7.269
		c2.851-0.428,4.133-0.641,6.984-1.639v6.984H472.703z M456.883,431.528c-2.209,0-3.207,0.998-3.207,1.995
		c0,1.14,1.425,1.924,3.064,1.924c1.639,0,2.566-0.926,2.566-2.423c0-0.356,0-0.57-0.071-0.998
		C458.379,431.67,457.667,431.528,456.883,431.528z M471.207,400.741c1.639,1.995,2.352,3.278,3.207,5.202
		c-1.14,0.641-1.924,1.212-3.635,2.566c-1.14-2.352-1.639-3.278-3.207-5.487L471.207,400.741z M475.483,397.677
		c1.354,1.069,2.922,3.492,3.492,4.846c-1.853,1.354-1.995,1.497-3.492,2.922c-0.641-1.71-1.924-3.991-3.207-5.416L475.483,397.677z
		"/>
	<path d="M494.796,403.236c0.428,0.143,0.998,0.285,0.998,0.713c0,0.641-0.57,0.713-0.998,0.784
		c-0.998,2.993-2.708,8.124-2.708,14.752c0,5.986,1.853,10.12,3.278,10.12c1.568,0,3.421-4.276,4.775-7.412
		c1.782,2.494,3.635,4.133,5.131,5.202c-3.92,9.478-8.338,12.828-10.761,12.828c-2.708,0-9.977-5.844-9.977-20.952
		c0-6.271,1.069-11.973,2.423-18.315L494.796,403.236z M518.456,403.592c5.416,7.269,9.051,15.536,9.906,24.587
		c-2.851,1.14-6.343,2.779-7.982,3.635c-0.57-10.405-3.635-17.531-8.195-24.23L518.456,403.592z"/>
	<path d="M544.539,403.236c0.428,0.143,0.998,0.285,0.998,0.713c0,0.641-0.57,0.713-0.998,0.784
		c-0.998,2.993-2.708,8.124-2.708,14.752c0,5.986,1.853,10.12,3.278,10.12c1.568,0,3.421-4.276,4.775-7.412
		c1.782,2.494,3.634,4.133,5.131,5.202c-3.92,9.478-8.338,12.828-10.761,12.828c-2.708,0-9.977-5.844-9.977-20.952
		c0-6.271,1.069-11.973,2.423-18.315L544.539,403.236z M568.199,403.592c5.345,7.269,9.051,15.536,9.906,24.587
		c-2.922,1.14-6.343,2.779-7.982,3.635c-0.57-10.405-3.635-17.531-8.196-24.23L568.199,403.592z"/>
	<path d="M594.496,435.661c0,3.991-3.278,7.34-7.269,7.34c-4.133,0-7.34-3.349-7.34-7.34c0-3.991,3.349-7.269,7.34-7.269
		C591.147,428.392,594.496,431.599,594.496,435.661z M583.45,435.661c0,2.067,1.639,3.706,3.706,3.706
		c2.067,0,3.706-1.71,3.706-3.706c0-1.995-1.639-3.706-3.706-3.706C585.089,432.027,583.45,433.666,583.45,435.661z"/>
</g>
</svg>
